<svg xmlns="http://www.w3.org/2000/svg" width="143" height="143" viewBox="0 0 143 143"><defs><style>.a{fill:#f53b57;}.b{fill:#fe515f;}</style></defs><g transform="translate(-768 -348)"><path d="M910.293,393a2.793,2.793,0,1,0,2.793,2.793A2.793,2.793,0,0,0,910.293,393Zm0,0" transform="translate(-87.551 -28.242)"/><path class="a" d="M945.578,424.758a2.793,2.793,0,0,1,0-5.586,4.479,4.479,0,0,1,3.02,1.461,2.794,2.794,0,1,0,3.886-4.015,10.776,10.776,0,0,0-4.112-2.571v-3.254a2.793,2.793,0,1,0-5.586,0v3.273a8.378,8.378,0,0,0,2.793,16.278,2.793,2.793,0,1,1,0,5.586,5.056,5.056,0,0,1-3.626-2.112,2.793,2.793,0,1,0-4.275,3.594,11.585,11.585,0,0,0,5.109,3.637v3.26a2.793,2.793,0,1,0,5.586,0v-3.273a8.378,8.378,0,0,0-2.793-16.278Zm0,0" transform="translate(-106.078 -37.656)"/><path d="M1037.273,457.5a11.184,11.184,0,0,0-11.172,11.172v19.906a11.167,11.167,0,0,0-10.692,2.918l-18.73,18.732a13.859,13.859,0,0,0-4.093,9.877v16.436h-2.793A2.793,2.793,0,0,0,987,539.334v17.6a2.794,2.794,0,0,0,2.793,2.793h39.1a2.793,2.793,0,0,0,2.793-2.793v-17.6a2.793,2.793,0,0,0-2.793-2.793H1026.1v-1.318a2.808,2.808,0,0,1,.819-1.974l17.435-17.434a13.881,13.881,0,0,0,4.09-9.876V468.672a11.184,11.184,0,0,0-11.172-11.172ZM1026.1,554.137H992.586v-12.01H1026.1Zm16.758-48.2a8.326,8.326,0,0,1-2.456,5.926L1022.97,529.3a8.439,8.439,0,0,0-2.454,5.925v1.318H998.172V520.1a8.317,8.317,0,0,1,2.456-5.926l18.732-18.733a5.577,5.577,0,0,1,7.667-.214c.016.013.032.028.048.042a2.455,2.455,0,0,1,.183.173,5.582,5.582,0,0,1,0,7.9l-13.879,13.878a2.794,2.794,0,0,0,3.951,3.951l13.878-13.877a11.165,11.165,0,0,0,.48-15.284V468.672a5.586,5.586,0,0,1,11.172,0Zm0,0" transform="translate(-137.445 -68.723)"/><path d="M826.652,536.541h-2.793V520.1a13.868,13.868,0,0,0-4.09-9.877L801.036,491.5a11.167,11.167,0,0,0-10.692-2.918V468.672a11.172,11.172,0,1,0-22.344,0v37.267a13.88,13.88,0,0,0,4.09,9.876l17.434,17.433a2.814,2.814,0,0,1,.819,1.976v1.318h-2.793a2.793,2.793,0,0,0-2.793,2.793v17.6a2.794,2.794,0,0,0,2.793,2.793h39.1a2.794,2.794,0,0,0,2.793-2.793v-17.6a2.793,2.793,0,0,0-2.793-2.793Zm-50.611-24.676a8.327,8.327,0,0,1-2.456-5.926V468.672a5.586,5.586,0,0,1,11.172,0v23.337a11.164,11.164,0,0,0,.48,15.284L799.2,521.258a2.794,2.794,0,0,0,3.951-3.951l-13.966-13.965a5.582,5.582,0,0,1,0-7.9c.061-.061.121-.119.185-.173l.048-.042a5.576,5.576,0,0,1,7.666.214l18.734,18.734a8.313,8.313,0,0,1,2.454,5.925v16.436H795.93v-1.318a8.44,8.44,0,0,0-2.454-5.925Zm47.818,42.271H790.344v-12.01h33.516Zm0,0" transform="translate(0 -68.723)"/><path class="b" d="M889.395,348a41.895,41.895,0,1,0,41.895,41.895A41.943,41.943,0,0,0,889.395,348Zm0,78.2A36.309,36.309,0,1,1,925.7,389.895,36.35,36.35,0,0,1,889.395,426.2Zm0,0" transform="translate(-49.895)"/><path d="M927.509,384.822a30.932,30.932,0,0,0-26.091-6.073,2.792,2.792,0,1,0,1.177,5.459A25.376,25.376,0,0,1,924,389.167a25.132,25.132,0,1,1-37.942,7.7,2.793,2.793,0,1,0-4.921-2.642,30.725,30.725,0,1,0,46.372-9.407Zm0,0" transform="translate(-68.723 -18.844)"/></g></svg>