<svg xmlns="http://www.w3.org/2000/svg" xmlns:xlink="http://www.w3.org/1999/xlink" width="144" height="144" viewBox="0 0 144 144"><defs><style>.a{fill:none;}.b{clip-path:url(#a);}.c{fill:#fe515f;}</style><clipPath id="a"><rect class="a" width="144" height="144" transform="translate(0 -0.373)"/></clipPath></defs><g transform="translate(-768 -347.609)"><path d="M956.484,355.833a2.1,2.1,0,0,0,2.1-2.1V350.1a2.1,2.1,0,1,0-4.2,0v3.633a2.1,2.1,0,0,0,2.1,2.1Zm0,0" transform="translate(-116.678 -0.002)"/><path d="M956.484,385.98a2.1,2.1,0,0,0,2.1-2.1v-.947a2.1,2.1,0,1,0-4.2,0v.947a2.1,2.1,0,0,0,2.1,2.1Zm0,0" transform="translate(-116.678 -20.555)"/><path d="M956.484,665.988a2.1,2.1,0,0,0,2.1-2.1v-4.935a2.1,2.1,0,0,0-4.2,0v4.935a2.1,2.1,0,0,0,2.1,2.1Zm0,0" transform="translate(-116.678 -193.349)"/><path d="M956.408,695.064a2.1,2.1,0,0,0-2.023,2.175c.114,3.11.114,6.383,0,9.459a2.1,2.1,0,0,0,2.022,2.177c.026,0,.053,0,.079,0a2.1,2.1,0,0,0,2.1-2.023c.117-3.177.117-6.556,0-9.767a2.1,2.1,0,0,0-2.175-2.022Zm0,0" transform="translate(-116.678 -217.268)"/><path d="M862.758,378.3c.951,1.6,1.848,3.113,2.678,4.685a2.1,2.1,0,0,0,3.715-1.963c-.88-1.664-1.847-3.292-2.782-4.866-.421-.707-.841-1.417-1.261-2.137a2.1,2.1,0,1,0-3.632,2.109c.425.733.855,1.455,1.281,2.172Zm0,0" transform="translate(-58.339 -15.634)"/><path d="M881.88,411.465c1.378,2.253,2.618,4.459,3.817,6.592l.474.843a2.1,2.1,0,0,0,3.661-2.063l-.473-.84c-1.218-2.165-2.477-4.4-3.9-6.723a2.1,2.1,0,1,0-3.583,2.191Zm0,0" transform="translate(-71.097 -37.731)"/><path d="M1019.537,641.5a2.1,2.1,0,1,0-3.638,2.1l2.035,3.525a2.1,2.1,0,1,0,3.638-2.1Zm0,0" transform="translate(-155.012 -183.077)"/><path d="M1040.045,677.015a2.1,2.1,0,0,0-3.637,2.1l4.282,7.418a2.1,2.1,0,0,0,3.638-2.1Zm0,0" transform="translate(-167.85 -205.312)"/><path d="M794.1,445.154c2.38,1.239,4.736,2.644,7.231,4.133,1.487.887,3.027,1.806,4.571,2.684a2.1,2.1,0,0,0,2.077-3.651c-1.508-.858-3.027-1.763-4.5-2.64-2.437-1.453-4.955-2.957-7.446-4.253a2.1,2.1,0,1,0-1.937,3.727Zm0,0" transform="translate(-15.63 -58.34)"/><path d="M841.8,472.7l2.831,1.635a2.1,2.1,0,0,0,2.1-3.638L843.9,469.06a2.1,2.1,0,0,0-2.1,3.638Zm0,0" transform="translate(-45.543 -75.61)"/><path d="M1071.755,600.611,1063.6,595.9a2.1,2.1,0,0,0-2.1,3.638l8.159,4.711a2.1,2.1,0,0,0,2.1-3.637Zm0,0" transform="translate(-183.074 -155.014)"/><path d="M1112.6,624.192,1108.808,622a2.1,2.1,0,1,0-2.1,3.637l3.791,2.189a2.1,2.1,0,0,0,2.1-3.638Zm0,0" transform="translate(-211.377 -171.355)"/><path d="M772.828,534.383H770.1a2.1,2.1,0,0,0,0,4.2h2.728a2.1,2.1,0,0,0,0-4.2Zm0,0" transform="translate(0 -116.68)"/><path d="M794.779,538.526h.023c1.673-.019,3.382-.031,5.08-.036a2.1,2.1,0,0,0-.006-4.2h-.007c-1.708.006-3.427.018-5.112.035a2.1,2.1,0,0,0,.022,4.2Zm0,0" transform="translate(-15.45 -116.621)"/><path d="M826.571,538.52q1.383.008,2.769.025h.023a2.1,2.1,0,0,0,.022-4.2q-1.394-.014-2.787-.024h-.013a2.1,2.1,0,0,0-.013,4.2Zm0,0" transform="translate(-35.359 -116.641)"/><g transform="translate(768 347.982)"><g class="b"><path d="M1089.243,536.457a2.1,2.1,0,0,0-2.061-2.137c-2.935-.054-5.484-.053-8.267,0a2.1,2.1,0,0,0,.04,4.2h.041c2.729-.052,5.23-.052,8.111,0a2.105,2.105,0,0,0,2.137-2.063Zm0,0" transform="translate(-961.346 -464.598)"/><path d="M1127.457,534.318c-2.955-.051-6.084-.053-9.3,0a2.1,2.1,0,0,0,.034,4.2h.035c3.17-.051,6.251-.051,9.158,0a2.1,2.1,0,1,0,.074-4.2Zm0,0" transform="translate(-985.908 -464.597)"/></g></g><path d="M800.147,618.251a26.87,26.87,0,0,1-3.233,1.882,32.487,32.487,0,0,0-3.006,1.715,2.1,2.1,0,1,0,2.327,3.5,29.158,29.158,0,0,1,2.627-1.489,30.847,30.847,0,0,0,3.719-2.181,2.1,2.1,0,0,0-2.434-3.423Zm0,0" transform="translate(-15.632 -168.939)"/><path d="M835.257,595.847c-1.361.689-2.663,1.5-3.921,2.286a47.336,47.336,0,0,1-4.533,2.6,2.1,2.1,0,1,0,1.82,3.785,50.268,50.268,0,0,0,4.936-2.82c1.234-.77,2.4-1.5,3.594-2.1a2.1,2.1,0,1,0-1.9-3.747Zm0,0" transform="translate(-36.066 -155.015)"/><path d="M1062.547,468.084a2.07,2.07,0,0,0,.875-.193,37.408,37.408,0,0,0,4.751-2.767,32.274,32.274,0,0,1,4.789-2.747,2.1,2.1,0,0,0-1.658-3.86,35.89,35.89,0,0,0-5.423,3.087,33.77,33.77,0,0,1-4.213,2.47,2.1,2.1,0,0,0,.879,4.009Zm0,0" transform="translate(-183.074 -69.08)"/><path d="M1103.951,448.4a2.105,2.105,0,0,0,1.049-.28l5.217-3.012a2.1,2.1,0,0,0-2.1-3.638l-5.217,3.012a2.1,2.1,0,0,0,1.052,3.918Zm0,0" transform="translate(-208.993 -58.342)"/><path d="M869.085,673.78a2.1,2.1,0,0,0-2.84.871c-1.49,2.8-3.223,5.686-4.752,8.228a2.1,2.1,0,1,0,3.6,2.165c1.557-2.587,3.321-5.521,4.862-8.424a2.1,2.1,0,0,0-.869-2.84Zm0,0" transform="translate(-58.339 -203.791)"/><path d="M1016.668,426.667a2.1,2.1,0,0,0,2.869-.769l1.922-3.331a2.1,2.1,0,0,0-3.637-2.1L1015.9,423.8a2.1,2.1,0,0,0,.769,2.869Zm0,0" transform="translate(-155.012 -44.711)"/><path d="M1035.708,400.49c.272-.546.571-1.119.891-1.7a2.1,2.1,0,0,0-3.685-2.017c-.345.629-.671,1.25-.966,1.843a2.1,2.1,0,1,0,3.759,1.876Zm0,0" transform="translate(-165.097 -29.849)"/><path d="M1048.013,373.246a2.1,2.1,0,0,0-2.865.786c-.564.989-1.145,1.963-1.589,2.7a2.1,2.1,0,0,0,3.6,2.165c.455-.758,1.055-1.759,1.639-2.787a2.1,2.1,0,0,0-.784-2.865Zm0,0" transform="translate(-172.315 -15.634)"/><path class="c" d="M925.728,538.424a2.1,2.1,0,0,0-2.949.359l-16.253,20.754,7.483-19.674a3.566,3.566,0,0,0-3.332-4.834H890.117l6.606-11.411a2.1,2.1,0,0,0-3.636-2.1l-7.156,12.36a3.566,3.566,0,0,0,3.087,5.354h20.737l-8.643,22.724a3.5,3.5,0,0,0,1.58,4.373,3.617,3.617,0,0,0,1.782.479,3.517,3.517,0,0,0,2.779-1.385l18.831-24.046a2.1,2.1,0,0,0-.358-2.95Zm0,0" transform="translate(-73.522 -107.968)"/><path class="c" d="M962.214,464.6h-22.9l3.277-24.958a3.567,3.567,0,0,0-6.624-2.25L925.55,455.381a2.1,2.1,0,1,0,3.635,2.1l8.824-15.24-2.957,22.526a3.565,3.565,0,0,0,3.535,4.03H960.91l-3.962,5.061a2.1,2.1,0,0,0,3.308,2.59l4.765-6.084a3.567,3.567,0,0,0-2.807-5.766Zm0,0" transform="translate(-98.451 -54.845)"/></g></svg>