<svg xmlns="http://www.w3.org/2000/svg" width="168.486" height="159.734" viewBox="0 0 168.486 159.734"><defs><style>.a{fill:#fe515f;}</style></defs><g transform="translate(-338.953 -325.797)"><path d="M488.591,372.887l3.445-4.007,3.357,2.886a2.486,2.486,0,0,0,1.619.6c.064,0,.125,0,.187-.008a2.477,2.477,0,0,0,1.7-.857l5.335-6.2a2.484,2.484,0,0,0-.264-3.5L485.62,346.021a2.486,2.486,0,0,0-3.5.264l-5.334,6.2a2.484,2.484,0,0,0,.264,3.5l3.358,2.888-3.709,4.314a65.938,65.938,0,0,0-25.517-9.625v-7.507h8.558a7.25,7.25,0,0,0,7.241-7.243v-5.781a7.25,7.25,0,0,0-7.241-7.241H422.409a7.25,7.25,0,0,0-7.243,7.241v5.781a7.252,7.252,0,0,0,7.243,7.243h8.556v7.507A65.923,65.923,0,0,0,405,363.486l-3.959-4.605,3.357-2.888a2.481,2.481,0,0,0,.264-3.5l-5.334-6.2a2.484,2.484,0,0,0-3.5-.264l-18.346,15.774a2.485,2.485,0,0,0-.264,3.5l5.334,6.2a2.487,2.487,0,0,0,3.5.264l3.357-2.886,3.772,4.386a66.893,66.893,0,0,0-8.656,11.192,2.433,2.433,0,0,0-.255-.014H368.585a2.485,2.485,0,0,0,0,4.97h13.177a65.986,65.986,0,0,0-3.412,8.068h-25.1a2.484,2.484,0,1,0,0,4.969h23.594a66.081,66.081,0,0,0-1.853,10.631h-33.55a2.485,2.485,0,0,0,0,4.97h33.283c-.005.37-.014.741-.014,1.114a66.516,66.516,0,0,0,.686,9.518H350.928a2.484,2.484,0,1,0,0,4.969H376.3a65.4,65.4,0,0,0,2.351,8.068h-12.39a2.484,2.484,0,0,0,0,4.969h14.423a66.37,66.37,0,0,0,99.074,26.4,2.485,2.485,0,0,0-2.9-4.035,61.414,61.414,0,1,1,6.53-94.334c.022.024.048.046.072.069a61.351,61.351,0,0,1,.985,87.827,2.484,2.484,0,1,0,3.51,3.515,66.3,66.3,0,0,0,.631-93.248Zm-4.324-21.477,14.578,12.532-2.1,2.437-14.577-12.534Zm-.093,10.71,4.095,3.52-3.279,3.814q-2.023-1.787-4.185-3.414Zm-54.088-21.026V330.766H434.1v10.328Zm8.981-10.328h4.012v10.328h-4.012Zm8.981,10.328V330.766h4.012v10.328Zm13.961-8.055v5.781a2.276,2.276,0,0,1-2.273,2.275h-2.708V330.766h2.708a2.276,2.276,0,0,1,2.273,2.273Zm-41.873,5.781v-5.781a2.276,2.276,0,0,1,2.273-2.273h2.708v10.328h-2.708a2.276,2.276,0,0,1-2.273-2.275ZM384.7,366.379l-2.095-2.437,14.579-12.532,2.094,2.435-3.357,2.887h0l-7.864,6.76Zm8.556-.8,4.021-3.455,3.645,4.242q-2.149,1.637-4.159,3.443l-3.582-4.165ZM435.935,353v-6.936H446.21V353q-2.542-.2-5.138-.2t-5.137.2Zm0,0"/><path class="a" d="M484.073,426.513a2.484,2.484,0,0,0-3.352-1.05,52,52,0,1,0,10.9-4.221,2.484,2.484,0,1,0,1.261,4.806,46.889,46.889,0,0,1,9.514-1.477V431.1a2.484,2.484,0,0,0,4.969,0v-6.521q1.807.1,3.623.333a46.907,46.907,0,0,1,25.6,11.8l-4.5,4.5a2.485,2.485,0,0,0,3.514,3.514l4.485-4.487q1.172,1.311,2.255,2.718a46.929,46.929,0,0,1,9.752,26.4h-6.163a2.484,2.484,0,0,0,0,4.969h6.149q-.1,1.779-.33,3.563a46.977,46.977,0,0,1-11.674,25.412l-4.256-4.256a2.485,2.485,0,1,0-3.514,3.514l4.261,4.261a47.288,47.288,0,0,1-28.89,12.143v-6.074a2.484,2.484,0,0,0-4.969,0v6.1c-1.3-.062-2.615-.173-3.934-.346a46.984,46.984,0,0,1-25.188-11.47l4.4-4.4a2.485,2.485,0,1,0-3.514-3.514l-4.425,4.425A47.28,47.28,0,0,1,457.7,474.629h6.439a2.484,2.484,0,1,0,0-4.969h-6.475q.09-1.987.346-3.993a47.3,47.3,0,0,1,11.61-25.358l4.631,4.629a2.484,2.484,0,0,0,3.514-3.512l-4.643-4.643a47.266,47.266,0,0,1,9.9-6.919,2.483,2.483,0,0,0,1.05-3.353Zm0,0" transform="translate(-63.808 -52.609)"/><path d="M563.916,486.656a2.485,2.485,0,0,0-2.485,2.485V503.9a6.081,6.081,0,0,0,2.485,11.633,6.017,6.017,0,0,0,2.571-.58l16.576,16.576a2.484,2.484,0,0,0,3.514-3.514l-16.833-16.831A6.067,6.067,0,0,0,566.4,503.9V489.141a2.484,2.484,0,0,0-2.483-2.485Zm-1.116,22.79a1.115,1.115,0,1,1,1.116,1.114,1.117,1.117,0,0,1-1.116-1.114Zm0,0" transform="translate(-122.843 -90.28)"/></g></svg>