<svg xmlns="http://www.w3.org/2000/svg" xmlns:xlink="http://www.w3.org/1999/xlink" width="199" height="143" viewBox="0 0 199 143"><defs><style>.a{fill:none;}.b{clip-path:url(#a);}.c{fill:#fe515f;}</style><clipPath id="a"><rect class="a" width="199" height="143" transform="translate(0)"/></clipPath></defs><g transform="translate(-703.987 -357.028)"><g transform="translate(703.987 357.028)"><g class="b" transform="translate(0 0)"><path d="M789.854,487.983A71.385,71.385,0,0,1,746.216,451.9a70.144,70.144,0,0,1-3.47-8,71.421,71.421,0,0,1,1.169-51.579,8.244,8.244,0,0,0,.809-.175,17.585,17.585,0,0,0,5.949-3.117,18.954,18.954,0,0,0,7.164-14.862,24.486,24.486,0,0,0-5.478-15.22,2.918,2.918,0,0,0-3.243-.924,24.487,24.487,0,0,0-12.684,10.041,18.957,18.957,0,0,0-1.75,16.405,17.6,17.6,0,0,0,3.41,5.789,3.468,3.468,0,0,0,.257.258q-1.4,3.43-2.458,6.974a19.06,19.06,0,0,0-9.018-7.3,24.5,24.5,0,0,0-16.172-.4,2.922,2.922,0,0,0-2.036,2.69,24.479,24.479,0,0,0,4.773,15.455,18.955,18.955,0,0,0,14.66,7.57c.181,0,.362.007.541.007a17.549,17.549,0,0,0,4.151-.506,76.843,76.843,0,0,0,.027,9.618,18.941,18.941,0,0,0-13.13-3.988,24.485,24.485,0,0,0-14.765,6.608,2.916,2.916,0,0,0-.678,3.3,24.492,24.492,0,0,0,10.968,11.891,18.953,18.953,0,0,0,16.489.511,17.424,17.424,0,0,0,3.86-2.343A76.3,76.3,0,0,0,739.55,451.5a19.107,19.107,0,0,0-10.607.488,24.475,24.475,0,0,0-12.633,10.1,2.92,2.92,0,0,0,.172,3.368,24.492,24.492,0,0,0,13.6,8.758,20.1,20.1,0,0,0,4.322.479,18.867,18.867,0,0,0,11.77-4.124,17.471,17.471,0,0,0,3.1-3.173c.494.623,1,1.241,1.511,1.85a78.151,78.151,0,0,0,6.039,6.383A19.2,19.2,0,0,0,748,479.616a24.485,24.485,0,0,0-8.37,13.84,2.919,2.919,0,0,0,1.324,3.1,24.991,24.991,0,0,0,12.912,3.716,21.5,21.5,0,0,0,2.877-.192,18.95,18.95,0,0,0,13.844-8.972,17.426,17.426,0,0,0,1.827-4.087,77.021,77.021,0,0,0,15.813,6.565,2.918,2.918,0,0,0,1.625-5.606Zm-50.36-110.775a14.214,14.214,0,0,1,1.262-4.877,16.746,16.746,0,0,1,8.315-8c5.165,7.88,2.985,16.1-2.054,20.152-1.246,1-3.287,2.58-4.838,1.593-2.573-1.636-2.878-6.182-2.685-8.87Zm-6.974,56.53a3.9,3.9,0,0,1-.169.861,5.252,5.252,0,0,1-2.991,3.01c-5.925,2.6-14.217.733-18.82-7.49-.257-.459,4.96-2.642,5.489-2.807a17.245,17.245,0,0,1,6.654-.763,12.65,12.65,0,0,1,6.147,2.151c1.555,1.093,3.854,2.965,3.69,5.037Zm-1.648-24.275a9.268,9.268,0,0,1-2.583.211c-6.465-.21-13.147-5.464-13.758-14.868,9.22-1.967,16.089,3.043,18.044,9.206.763,2.4,1.159,4.71-1.7,5.451Zm14.383,53.193c-.21,1.33-1.7,2.557-2.688,3.333-5.083,4-13.579,4.282-20.1-2.522a16.707,16.707,0,0,1,9.838-6.342c3.413-.66,11.923.464,12.927,4.8a1.884,1.884,0,0,1,.024.731Zm20.366,25.4c-3.391,5.508-11.268,8.7-19.735,4.567a16.037,16.037,0,0,1,8.341-9.84c2.787-1.292,9.066-2.793,11.762-.582a2.723,2.723,0,0,1,1.047,1.782c.178,1.353-.66,2.848-1.416,4.073Zm0,0" transform="translate(-703.986 -357.584)"/></g></g><path class="c" d="M914.668,501.235a4.487,4.487,0,0,0,1.8-4.412l-4.614-26.891,19.539-19.045a4.51,4.51,0,0,0-2.5-7.693l-27-3.925L889.814,414.8a4.511,4.511,0,0,0-8.09,0l-4.963,10.056a2.918,2.918,0,0,0,5.232,2.583l3.775-7.653,11.2,22.685a4.51,4.51,0,0,0,3.395,2.468l25.036,3.638L907.278,466.24a4.512,4.512,0,0,0-1.3,3.991l4.275,24.935-22.391-11.773a4.5,4.5,0,0,0-4.2,0l-22.391,11.773,4.275-24.934a4.507,4.507,0,0,0-1.3-3.993l-18.116-17.658,25.035-3.638a4.51,4.51,0,0,0,3.395-2.468l1.416-2.865a2.918,2.918,0,0,0-5.233-2.583l-1.105,2.241-27,3.923a4.512,4.512,0,0,0-2.5,7.695l19.539,19.044-4.611,26.892a4.5,4.5,0,0,0,6.542,4.754l24.151-12.7,24.151,12.7a4.482,4.482,0,0,0,4.75-.342Zm0,0" transform="translate(-82.321 -33.8)"/><path class="c" d="M929.775,369.839a2.918,2.918,0,0,0,5.773-.849L934.4,361.2a2.918,2.918,0,0,0-5.773.849Zm0,0" transform="translate(-137.176 -1.074)"/><path d="M890.417,392.33a2.918,2.918,0,0,0,4.963-3.071l-3.941-6.366a2.917,2.917,0,1,0-4.961,3.07Zm0,0" transform="translate(-111.184 -15.001)"/><path d="M976.119,372.3a2.91,2.91,0,0,0,3.31-2.461l1.146-7.789a2.918,2.918,0,0,0-5.773-.849l-1.145,7.789a2.915,2.915,0,0,0,2.461,3.31Zm0,0" transform="translate(-164.679 -1.074)"/><g transform="translate(703.987 357.028)"><g class="b" transform="translate(0 0)"><path class="c" d="M1010.387,393.274a2.915,2.915,0,0,0,4.015-.944l3.941-6.368a2.917,2.917,0,0,0-4.96-3.071l-3.941,6.367a2.915,2.915,0,0,0,.944,4.015Zm0,0" transform="translate(-890.274 -372.029)"/><path d="M1076.053,427.244a24.473,24.473,0,0,0-14.765-6.608,18.935,18.935,0,0,0-13.132,3.987,76.818,76.818,0,0,0,.029-9.617,17.539,17.539,0,0,0,4.15.506c.182,0,.361,0,.542-.009a18.954,18.954,0,0,0,14.66-7.569,24.485,24.485,0,0,0,4.773-15.457,2.92,2.92,0,0,0-2.036-2.688,24.475,24.475,0,0,0-16.171.4,19.048,19.048,0,0,0-9.018,7.3q-1.058-3.54-2.458-6.973a3.38,3.38,0,0,0,.257-.26,17.625,17.625,0,0,0,3.412-5.788,18.965,18.965,0,0,0-1.752-16.406,24.5,24.5,0,0,0-12.683-10.041,2.918,2.918,0,0,0-3.243.926,24.472,24.472,0,0,0-5.478,15.218,18.951,18.951,0,0,0,7.164,14.862,17.572,17.572,0,0,0,5.948,3.118,8.1,8.1,0,0,0,.81.173,71.289,71.289,0,0,1-5.656,65.452,71.747,71.747,0,0,1-14.035,16.1,55.068,55.068,0,0,1-7.421,5.545c-2.639,1.572-5.337,3.181-8.112,4.5a71.338,71.338,0,0,1-10.713,4.067,2.917,2.917,0,0,0,.809,5.72,2.948,2.948,0,0,0,.815-.116,77,77,0,0,0,15.812-6.565,17.462,17.462,0,0,0,1.828,4.087,18.813,18.813,0,0,0,7,6.74,2.916,2.916,0,1,0,2.815-5.109,13.113,13.113,0,0,1-4.85-4.689c-1.416-2.3-1.873-4.858,1.031-6,8.133-3.187,16.249,2.887,18.7,10.55a19.239,19.239,0,0,1-4.014,1.389,2.917,2.917,0,0,0,.642,5.763,2.861,2.861,0,0,0,.648-.073,25.247,25.247,0,0,0,7.658-3.128,2.917,2.917,0,0,0,1.324-3.1,24.478,24.478,0,0,0-8.37-13.842,19.2,19.2,0,0,0-8.826-3.982,78.2,78.2,0,0,0,6.039-6.381c.517-.61,1.019-1.228,1.513-1.852a17.469,17.469,0,0,0,3.1,3.175,18.867,18.867,0,0,0,11.771,4.122,20,20,0,0,0,4.321-.479,24.5,24.5,0,0,0,13.6-8.756,2.923,2.923,0,0,0,.173-3.37,24.485,24.485,0,0,0-12.635-10.1,19.12,19.12,0,0,0-10.606-.488,76.317,76.317,0,0,0,3.986-10.894,17.41,17.41,0,0,0,3.86,2.345,18.961,18.961,0,0,0,16.49-.513,24.486,24.486,0,0,0,10.968-11.891,2.918,2.918,0,0,0-.678-3.3Zm-34.793-46.43c-.372,1.852-.8,4.969-3.149,5.32-1.637.246-2.936-.672-4.153-1.651-5.037-4.057-7.219-12.272-2.053-20.152.431-.658,5.679,4.04,6.135,4.58a14.8,14.8,0,0,1,3.038,5.838,13.683,13.683,0,0,1,.182,6.065Zm17.248,82.65c-6.52,6.8-15.016,6.523-20.1,2.522a11.7,11.7,0,0,1-2.86-3.307c-.038-.084-.093-.208-.152-.348.248-.373.494-.75.737-1.127a11.683,11.683,0,0,1,2.638-2.31c5.466-3.457,13.947-2.868,19.735,4.569ZM1048.4,404.01c1.957-6.165,8.825-11.173,18.044-9.207-.61,9.4-7.294,14.659-13.758,14.868-1.56.053-4.069.07-4.747-1.654-.482-1.228.085-2.822.461-4.008Zm3.214,33.6c-1.3-.569-2.866-1.255-3.49-2.618-1.359-2.969,3.176-5.635,5.114-6.738a13.985,13.985,0,0,1,5.134-1.711,16.52,16.52,0,0,1,12.063,3.578c-4.6,8.224-12.9,10.085-18.821,7.49Zm0,0" transform="translate(-878.067 -357.582)"/></g></g></g></svg>